G04 EAGLE Gerber RS-274X export*
G75*
%MOMM*%
%FSLAX34Y34*%
%LPD*%
%IN*%
%IPPOS*%
%AMOC8*
5,1,8,0,0,1.08239X$1,22.5*%
G01*
%ADD10C,0.254000*%


D10*
X0Y0D02*
X990400Y0D01*
X990400Y1050800D01*
X0Y1050800D01*
X0Y0D01*
X51650Y158421D02*
X51577Y157869D01*
X51433Y157331D01*
X51220Y156816D01*
X50941Y156334D01*
X50602Y155892D01*
X50208Y155498D01*
X49766Y155159D01*
X49284Y154880D01*
X48769Y154667D01*
X48231Y154523D01*
X47679Y154450D01*
X47121Y154450D01*
X46569Y154523D01*
X46031Y154667D01*
X45516Y154880D01*
X45034Y155159D01*
X44592Y155498D01*
X44198Y155892D01*
X43859Y156334D01*
X43580Y156816D01*
X43367Y157331D01*
X43223Y157869D01*
X43150Y158421D01*
X43150Y158979D01*
X43223Y159531D01*
X43367Y160069D01*
X43580Y160584D01*
X43859Y161066D01*
X44198Y161508D01*
X44592Y161902D01*
X45034Y162241D01*
X45516Y162520D01*
X46031Y162733D01*
X46569Y162877D01*
X47121Y162950D01*
X47679Y162950D01*
X48231Y162877D01*
X48769Y162733D01*
X49284Y162520D01*
X49766Y162241D01*
X50208Y161902D01*
X50602Y161508D01*
X50941Y161066D01*
X51220Y160584D01*
X51433Y160069D01*
X51577Y159531D01*
X51650Y158979D01*
X51650Y158421D01*
X51650Y120421D02*
X51577Y119869D01*
X51433Y119331D01*
X51220Y118816D01*
X50941Y118334D01*
X50602Y117892D01*
X50208Y117498D01*
X49766Y117159D01*
X49284Y116880D01*
X48769Y116667D01*
X48231Y116523D01*
X47679Y116450D01*
X47121Y116450D01*
X46569Y116523D01*
X46031Y116667D01*
X45516Y116880D01*
X45034Y117159D01*
X44592Y117498D01*
X44198Y117892D01*
X43859Y118334D01*
X43580Y118816D01*
X43367Y119331D01*
X43223Y119869D01*
X43150Y120421D01*
X43150Y120979D01*
X43223Y121531D01*
X43367Y122069D01*
X43580Y122584D01*
X43859Y123066D01*
X44198Y123508D01*
X44592Y123902D01*
X45034Y124241D01*
X45516Y124520D01*
X46031Y124733D01*
X46569Y124877D01*
X47121Y124950D01*
X47679Y124950D01*
X48231Y124877D01*
X48769Y124733D01*
X49284Y124520D01*
X49766Y124241D01*
X50208Y123902D01*
X50602Y123508D01*
X50941Y123066D01*
X51220Y122584D01*
X51433Y122069D01*
X51577Y121531D01*
X51650Y120979D01*
X51650Y120421D01*
M02*
