G04 EAGLE Gerber RS-274X export*
G75*
%MOMM*%
%FSLAX34Y34*%
%LPD*%
%INSoldermask Top*%
%IPPOS*%
%AMOC8*
5,1,8,0,0,1.08239X$1,22.5*%
G01*
%ADD10R,2.571200X2.406800*%
%ADD11R,1.403200X1.903200*%
%ADD12R,1.473200X0.762000*%
%ADD13R,0.762000X1.473200*%
%ADD14C,1.361200*%
%ADD15R,1.503200X1.703200*%
%ADD16C,2.743200*%
%ADD17R,2.403200X0.803200*%
%ADD18R,1.403200X0.603200*%
%ADD19R,1.371600X1.803400*%
%ADD20R,0.152400X1.828800*%
%ADD21R,3.403200X2.003200*%
%ADD22R,2.260600X0.812800*%
%ADD23R,2.489200X2.489200*%
%ADD24R,1.403200X1.403200*%
%ADD25R,1.203200X1.303200*%
%ADD26R,0.838200X1.473200*%
%ADD27R,2.003200X1.803200*%
%ADD28R,0.753200X1.403200*%
%ADD29C,2.082800*%
%ADD30R,0.553200X1.403200*%
%ADD31R,1.653200X0.603200*%
%ADD32C,1.053200*%
%ADD33R,1.700000X2.000000*%
%ADD34R,1.700000X2.700000*%
%ADD35R,0.863600X2.235200*%
%ADD36R,2.103200X1.603200*%
%ADD37R,1.603200X2.003200*%
%ADD38R,1.703200X0.903200*%
%ADD39R,1.703200X2.153200*%
%ADD40R,1.603200X1.303200*%
%ADD41R,1.503200X1.753200*%
%ADD42R,1.703200X1.503200*%
%ADD43C,1.524000*%
%ADD44C,1.524000*%
%ADD45R,4.165600X4.165600*%
%ADD46C,3.378200*%
%ADD47P,2.034460X8X22.500000*%
%ADD48P,2.034460X8X202.500000*%
%ADD49C,0.959600*%

G36*
X141670Y188607D02*
X141670Y188607D01*
X141736Y188609D01*
X141779Y188627D01*
X141826Y188635D01*
X141883Y188669D01*
X141943Y188694D01*
X141978Y188725D01*
X142019Y188750D01*
X142061Y188801D01*
X142109Y188845D01*
X142131Y188887D01*
X142160Y188924D01*
X142181Y188986D01*
X142212Y189045D01*
X142220Y189099D01*
X142232Y189136D01*
X142231Y189176D01*
X142239Y189230D01*
X142239Y191770D01*
X142228Y191835D01*
X142226Y191901D01*
X142208Y191944D01*
X142200Y191991D01*
X142166Y192048D01*
X142141Y192108D01*
X142110Y192143D01*
X142085Y192184D01*
X142034Y192226D01*
X141990Y192274D01*
X141948Y192296D01*
X141911Y192325D01*
X141849Y192346D01*
X141790Y192377D01*
X141736Y192385D01*
X141699Y192397D01*
X141659Y192396D01*
X141605Y192404D01*
X137795Y192404D01*
X137730Y192393D01*
X137664Y192391D01*
X137621Y192373D01*
X137574Y192365D01*
X137517Y192331D01*
X137457Y192306D01*
X137422Y192275D01*
X137381Y192250D01*
X137340Y192199D01*
X137291Y192155D01*
X137269Y192113D01*
X137240Y192076D01*
X137219Y192014D01*
X137188Y191955D01*
X137180Y191901D01*
X137168Y191864D01*
X137168Y191861D01*
X137169Y191824D01*
X137161Y191770D01*
X137161Y189230D01*
X137172Y189165D01*
X137174Y189099D01*
X137192Y189056D01*
X137200Y189009D01*
X137234Y188952D01*
X137259Y188892D01*
X137290Y188857D01*
X137315Y188816D01*
X137366Y188775D01*
X137410Y188726D01*
X137452Y188704D01*
X137489Y188675D01*
X137551Y188654D01*
X137610Y188623D01*
X137664Y188615D01*
X137701Y188603D01*
X137741Y188604D01*
X137795Y188596D01*
X141605Y188596D01*
X141670Y188607D01*
G37*
D10*
X824812Y406400D03*
X775388Y406400D03*
X775388Y482600D03*
X824812Y482600D03*
D11*
X910100Y482600D03*
X944100Y482600D03*
D12*
X757174Y332800D03*
X757174Y324800D03*
X757174Y316800D03*
X757174Y308800D03*
X757174Y300800D03*
X757174Y292800D03*
X757174Y284800D03*
X757174Y276800D03*
D13*
X772100Y261874D03*
X780100Y261874D03*
X788100Y261874D03*
X796100Y261874D03*
X804100Y261874D03*
X812100Y261874D03*
X820100Y261874D03*
X828100Y261874D03*
D12*
X843026Y276800D03*
X843026Y284800D03*
X843026Y292800D03*
X843026Y300800D03*
X843026Y308800D03*
X843026Y316800D03*
X843026Y324800D03*
X843026Y332800D03*
D13*
X828100Y347726D03*
X820100Y347726D03*
X812100Y347726D03*
X804100Y347726D03*
X796100Y347726D03*
X788100Y347726D03*
X780100Y347726D03*
X772100Y347726D03*
D14*
X673100Y280400D03*
X673100Y329200D03*
D15*
X936600Y419100D03*
X917600Y419100D03*
D16*
X558800Y977900D02*
X558800Y1003300D01*
X431800Y1003300D02*
X431800Y977900D01*
D17*
X355000Y285750D03*
X407000Y285750D03*
X355000Y298450D03*
X355000Y273050D03*
X355000Y260350D03*
X407000Y298450D03*
X407000Y273050D03*
X407000Y260350D03*
D15*
X257200Y342900D03*
X276200Y342900D03*
X276200Y279400D03*
X257200Y279400D03*
D18*
X825200Y136750D03*
X851200Y136750D03*
X825200Y130250D03*
X825200Y123750D03*
X825200Y117250D03*
X851200Y117250D03*
X851200Y123750D03*
X851200Y130250D03*
D15*
X917600Y50800D03*
X936600Y50800D03*
D19*
X934720Y355600D03*
X919480Y355600D03*
D20*
X927100Y355600D03*
D19*
X934720Y292100D03*
X919480Y292100D03*
D20*
X927100Y292100D03*
D15*
X936600Y88900D03*
X917600Y88900D03*
X936600Y152400D03*
X917600Y152400D03*
X917600Y215900D03*
X936600Y215900D03*
X835000Y50800D03*
X816000Y50800D03*
D21*
X762000Y111700D03*
X762000Y167700D03*
D16*
X495300Y977900D02*
X495300Y1003300D01*
D15*
X257200Y406400D03*
X276200Y406400D03*
D17*
X494700Y285750D03*
X546700Y285750D03*
X494700Y298450D03*
X494700Y273050D03*
X494700Y260350D03*
X546700Y298450D03*
X546700Y273050D03*
X546700Y260350D03*
D15*
X371500Y406400D03*
X390500Y406400D03*
X511200Y406400D03*
X530200Y406400D03*
X511200Y355600D03*
X530200Y355600D03*
X371500Y355600D03*
X390500Y355600D03*
D22*
X110776Y160400D03*
X110776Y147700D03*
X110776Y135000D03*
X110776Y122300D03*
X164624Y122300D03*
X164624Y135000D03*
X164624Y147700D03*
X164624Y160400D03*
D23*
X137700Y141350D03*
D24*
X76200Y61300D03*
X76200Y40300D03*
X114300Y61300D03*
X114300Y40300D03*
D25*
X215900Y156600D03*
X215900Y173600D03*
X266700Y156600D03*
X266700Y173600D03*
D26*
X143764Y215900D03*
X135636Y215900D03*
D27*
X381000Y36800D03*
X381000Y64800D03*
D25*
X254000Y42300D03*
X254000Y59300D03*
D28*
X333400Y87330D03*
X342900Y87330D03*
X352400Y87330D03*
X352400Y113330D03*
X342900Y113330D03*
X333400Y113330D03*
D29*
X431800Y139700D03*
X431800Y203200D03*
D25*
X266700Y110100D03*
X266700Y93100D03*
D30*
X333150Y148550D03*
X339650Y148550D03*
X346150Y148550D03*
X352650Y148550D03*
X352650Y207050D03*
X346150Y207050D03*
X339650Y207050D03*
X333150Y207050D03*
D25*
X304800Y42300D03*
X304800Y59300D03*
X215900Y93100D03*
X215900Y110100D03*
X215900Y59300D03*
X215900Y42300D03*
X165100Y59300D03*
X165100Y42300D03*
D31*
X52650Y152700D03*
X52650Y126700D03*
D32*
X47400Y158700D03*
X47400Y120700D03*
D33*
X25400Y176540D03*
X25400Y102860D03*
D34*
X25400Y139700D03*
D35*
X69850Y489966D03*
X69850Y551434D03*
X82550Y489966D03*
X95250Y489966D03*
X82550Y551434D03*
X95250Y551434D03*
X107950Y489966D03*
X107950Y551434D03*
X120650Y489966D03*
X120650Y551434D03*
X133350Y489966D03*
X146050Y489966D03*
X133350Y551434D03*
X146050Y551434D03*
X158750Y489966D03*
X158750Y551434D03*
D36*
X42400Y389700D03*
X33400Y257700D03*
D37*
X173400Y373700D03*
X173400Y313700D03*
D38*
X71400Y380700D03*
X71400Y369700D03*
X67400Y358700D03*
X71400Y347700D03*
X67400Y336700D03*
X71400Y325700D03*
X75400Y314700D03*
X71400Y303700D03*
D28*
X327000Y521000D03*
X317500Y521000D03*
X308000Y521000D03*
X308000Y495000D03*
X327000Y495000D03*
D39*
X215900Y494250D03*
X215900Y521750D03*
D40*
X266700Y518000D03*
X266700Y498000D03*
D24*
X88900Y421300D03*
X88900Y442300D03*
D40*
X127000Y441800D03*
X127000Y421800D03*
D29*
X812800Y546100D03*
X838200Y546100D03*
X863600Y546100D03*
X889000Y546100D03*
D26*
X144780Y190500D03*
X134620Y190500D03*
D41*
X517800Y115950D03*
X517800Y36450D03*
X472800Y115950D03*
X472800Y36450D03*
D42*
X558800Y66700D03*
X558800Y85700D03*
D43*
X533400Y482600D03*
X558800Y482600D03*
D44*
X602996Y469900D02*
X616204Y469900D01*
X616204Y444500D02*
X602996Y444500D01*
X602996Y419100D02*
X616204Y419100D01*
X616204Y393700D02*
X602996Y393700D01*
X679196Y393700D02*
X692404Y393700D01*
X692404Y419100D02*
X679196Y419100D01*
X679196Y444500D02*
X692404Y444500D01*
X692404Y469900D02*
X679196Y469900D01*
D45*
X431800Y520700D03*
D46*
X365760Y520700D03*
X497840Y520700D03*
D47*
X596900Y508000D03*
X698500Y508000D03*
D48*
X698500Y546100D03*
X596900Y546100D03*
D47*
X635000Y596900D03*
X660400Y596900D03*
D49*
X784225Y447675D03*
X749300Y400050D03*
X942975Y466725D03*
X904875Y428625D03*
X409575Y387350D03*
X292100Y127000D03*
X292100Y66675D03*
X425450Y288925D03*
X92075Y139700D03*
X92075Y158750D03*
X307975Y260350D03*
X276225Y228600D03*
X527050Y285750D03*
X228600Y98425D03*
X730250Y339725D03*
X485775Y130175D03*
X774700Y323850D03*
X425450Y266700D03*
X419100Y241300D03*
X904875Y279400D03*
X904875Y161925D03*
X920750Y307975D03*
X920750Y104775D03*
X863600Y123825D03*
X835025Y66675D03*
X869950Y114300D03*
X885825Y339725D03*
X889000Y215900D03*
X739775Y333375D03*
X746125Y184150D03*
X247650Y441325D03*
X476250Y276225D03*
X419100Y339725D03*
X514350Y288925D03*
X542925Y368300D03*
X371475Y339725D03*
X371475Y279400D03*
X323850Y88900D03*
X358775Y136525D03*
X215900Y79375D03*
X184150Y146050D03*
X95250Y177800D03*
X82550Y152400D03*
X419100Y177800D03*
X292100Y47625D03*
X279400Y92075D03*
X98425Y454025D03*
X101600Y568325D03*
X85725Y349250D03*
X85725Y473075D03*
X127000Y454025D03*
X127000Y473075D03*
X92075Y317500D03*
X809625Y276225D03*
X733425Y352425D03*
X390525Y222250D03*
X111125Y508000D03*
X396875Y231775D03*
X155575Y473075D03*
X85725Y327025D03*
X111125Y473075D03*
M02*
