G04 EAGLE Gerber RS-274X export*
G75*
%MOMM*%
%FSLAX34Y34*%
%LPD*%
%INSolderpaste Top*%
%IPPOS*%
%AMOC8*
5,1,8,0,0,1.08239X$1,22.5*%
G01*
%ADD10R,2.368000X2.203600*%
%ADD11R,1.200000X1.700000*%
%ADD12R,1.270000X0.558800*%
%ADD13R,0.558800X1.270000*%
%ADD14R,1.300000X1.500000*%
%ADD15R,2.200000X0.600000*%
%ADD16R,1.200000X0.400000*%
%ADD17R,3.200000X1.800000*%
%ADD18R,2.057400X0.609600*%
%ADD19R,2.286000X2.286000*%
%ADD20R,1.200000X1.200000*%
%ADD21R,1.000000X1.100000*%
%ADD22R,1.800000X1.600000*%
%ADD23R,0.550000X1.200000*%
%ADD24R,0.350000X1.200000*%
%ADD25R,1.450000X0.400000*%
%ADD26R,1.500000X1.800000*%
%ADD27R,0.700000X1.500000*%
%ADD28R,0.660400X2.032000*%
%ADD29R,1.900000X1.400000*%
%ADD30R,1.400000X1.800000*%
%ADD31R,1.500000X0.700000*%
%ADD32R,1.500000X1.950000*%
%ADD33R,1.400000X1.100000*%
%ADD34R,1.300000X1.550000*%
%ADD35R,1.500000X1.300000*%


D10*
X824812Y406400D03*
X775388Y406400D03*
X775388Y482600D03*
X824812Y482600D03*
D11*
X910100Y482600D03*
X944100Y482600D03*
D12*
X757174Y332800D03*
X757174Y324800D03*
X757174Y316800D03*
X757174Y308800D03*
X757174Y300800D03*
X757174Y292800D03*
X757174Y284800D03*
X757174Y276800D03*
D13*
X772100Y261874D03*
X780100Y261874D03*
X788100Y261874D03*
X796100Y261874D03*
X804100Y261874D03*
X812100Y261874D03*
X820100Y261874D03*
X828100Y261874D03*
D12*
X843026Y276800D03*
X843026Y284800D03*
X843026Y292800D03*
X843026Y300800D03*
X843026Y308800D03*
X843026Y316800D03*
X843026Y324800D03*
X843026Y332800D03*
D13*
X828100Y347726D03*
X820100Y347726D03*
X812100Y347726D03*
X804100Y347726D03*
X796100Y347726D03*
X788100Y347726D03*
X780100Y347726D03*
X772100Y347726D03*
D14*
X936600Y419100D03*
X917600Y419100D03*
D15*
X355000Y285750D03*
X407000Y285750D03*
X355000Y298450D03*
X355000Y273050D03*
X355000Y260350D03*
X407000Y298450D03*
X407000Y273050D03*
X407000Y260350D03*
D14*
X257200Y342900D03*
X276200Y342900D03*
X276200Y279400D03*
X257200Y279400D03*
D16*
X825200Y136750D03*
X851200Y136750D03*
X825200Y130250D03*
X825200Y123750D03*
X825200Y117250D03*
X851200Y117250D03*
X851200Y123750D03*
X851200Y130250D03*
D14*
X917600Y50800D03*
X936600Y50800D03*
X936600Y88900D03*
X917600Y88900D03*
X936600Y152400D03*
X917600Y152400D03*
X917600Y215900D03*
X936600Y215900D03*
X835000Y50800D03*
X816000Y50800D03*
D17*
X762000Y111700D03*
X762000Y167700D03*
D14*
X257200Y406400D03*
X276200Y406400D03*
D15*
X494700Y285750D03*
X546700Y285750D03*
X494700Y298450D03*
X494700Y273050D03*
X494700Y260350D03*
X546700Y298450D03*
X546700Y273050D03*
X546700Y260350D03*
D14*
X371500Y406400D03*
X390500Y406400D03*
X511200Y406400D03*
X530200Y406400D03*
X511200Y355600D03*
X530200Y355600D03*
X371500Y355600D03*
X390500Y355600D03*
D18*
X110776Y160400D03*
X110776Y147700D03*
X110776Y135000D03*
X110776Y122300D03*
X164624Y122300D03*
X164624Y135000D03*
X164624Y147700D03*
X164624Y160400D03*
D19*
X137700Y141350D03*
D20*
X76200Y61300D03*
X76200Y40300D03*
X114300Y61300D03*
X114300Y40300D03*
D21*
X215900Y156600D03*
X215900Y173600D03*
X266700Y156600D03*
X266700Y173600D03*
D22*
X381000Y36800D03*
X381000Y64800D03*
D21*
X254000Y42300D03*
X254000Y59300D03*
D23*
X333400Y87330D03*
X342900Y87330D03*
X352400Y87330D03*
X352400Y113330D03*
X342900Y113330D03*
X333400Y113330D03*
D21*
X266700Y110100D03*
X266700Y93100D03*
D24*
X333150Y148550D03*
X339650Y148550D03*
X346150Y148550D03*
X352650Y148550D03*
X352650Y207050D03*
X346150Y207050D03*
X339650Y207050D03*
X333150Y207050D03*
D21*
X304800Y42300D03*
X304800Y59300D03*
X215900Y93100D03*
X215900Y110100D03*
X215900Y59300D03*
X215900Y42300D03*
X165100Y59300D03*
X165100Y42300D03*
D25*
X52650Y152700D03*
X52650Y126700D03*
D26*
X25400Y176540D03*
D27*
X25400Y139700D03*
D26*
X25400Y102860D03*
D28*
X69850Y489966D03*
X69850Y551434D03*
X82550Y489966D03*
X95250Y489966D03*
X82550Y551434D03*
X95250Y551434D03*
X107950Y489966D03*
X107950Y551434D03*
X120650Y489966D03*
X120650Y551434D03*
X133350Y489966D03*
X146050Y489966D03*
X133350Y551434D03*
X146050Y551434D03*
X158750Y489966D03*
X158750Y551434D03*
D29*
X42400Y389700D03*
X33400Y257700D03*
D30*
X173400Y373700D03*
X173400Y313700D03*
D31*
X71400Y380700D03*
X71400Y369700D03*
X67400Y358700D03*
X71400Y347700D03*
X67400Y336700D03*
X71400Y325700D03*
X75400Y314700D03*
X71400Y303700D03*
D23*
X327000Y521000D03*
X317500Y521000D03*
X308000Y521000D03*
X308000Y495000D03*
X327000Y495000D03*
D32*
X215900Y494250D03*
X215900Y521750D03*
D33*
X266700Y518000D03*
X266700Y498000D03*
D20*
X88900Y421300D03*
X88900Y442300D03*
D33*
X127000Y441800D03*
X127000Y421800D03*
D34*
X517800Y115950D03*
X517800Y36450D03*
X472800Y115950D03*
X472800Y36450D03*
D35*
X558800Y66700D03*
X558800Y85700D03*
M02*
