M48
;GenerationSoftware,Autodesk,EAGLE,9.6.2*%
;CreationDate,2020-12-21T19:06:37Z*%
FMAT,2
ICI,OFF
METRIC,TZ,000.000
T8C0.350
T7C0.650
T6C0.800
T5C0.813
T4C0.850
T3C1.016
T2C1.400
T1C2.000
%
G90
M71
T1
X36576Y52070
X49784Y52070
T2
X55880Y99060
X43180Y99060
X49530Y99060
T3
X43180Y13970
X43180Y20320
X81280Y54610
X83820Y54610
X86360Y54610
X88900Y54610
T4
X4740Y15870
X4740Y12070
T5
X68580Y41910
X53340Y48260
X55880Y48260
X60960Y46990
X60960Y44450
X60960Y41910
X60960Y39370
X68580Y39370
X68580Y44450
X68580Y46990
X59690Y50800
X69850Y50800
X69850Y54610
X59690Y54610
X63500Y59690
X66040Y59690
T6
X43180Y52070
T7
X67310Y28040
X67310Y32920
T8
X41910Y33973
X51435Y28892
X54292Y36830
X37148Y33973
X37148Y27940
X32385Y8890
X35878Y13652
X21590Y7937
X18415Y14605
X9525Y17780
X8255Y15240
X41910Y17780
X29210Y4763
X27940Y9208
X27622Y22860
X10160Y56832
X8573Y34925
X8573Y47307
X12700Y45402
X12700Y47307
X9208Y31750
X80963Y27622
X73343Y35243
X39053Y22225
X11112Y50800
X39688Y23177
X15557Y47307
X8573Y32702
X11112Y47307
X78423Y44767
X74930Y40005
X94297Y46672
X90487Y42863
X40958Y38735
X29210Y12700
X29210Y6667
X42545Y28892
X9208Y13970
X9208Y15875
X30797Y26035
X52705Y28575
X22860Y9843
X73025Y33973
X48577Y13017
X77470Y32385
X42545Y26670
X41910Y24130
X90487Y27940
X90487Y16192
X9843Y45402
X92075Y30797
X92075Y10478
X86360Y12382
X83503Y6667
X86995Y11430
X88582Y33973
X88900Y21590
X73978Y33338
X74613Y18415
X24765Y44132
X47625Y27622
M30